<svg xmlns="http://www.w3.org/2000/svg" viewBox="0 0 100 100">
  <!-- 背景圓形 -->
  <circle cx="50" cy="50" r="45" fill="rgb(112,128,144)"/>
  
  <!-- PCB 線路 -->
  <path d="M20 50 H35 M65 50 H80" 
        stroke="#FFF" 
        stroke-width="2" 
        fill="none"/>
  
  <!-- 心臟形狀的 PCB 路徑 -->
  <path d="M50 70 
           C35 50 20 55 20 40 
           C20 25 35 25 50 40 
           C65 25 80 25 80 40 
           C80 55 65 50 50 70" 
        stroke="#FFF" 
        stroke-width="2" 
        fill="none"/>
  
  <!-- PCB 連接點 -->
  <circle cx="20" cy="40" r="3" fill="#FFF"/>
  <circle cx="80" cy="40" r="3" fill="#FFF"/>
  <circle cx="50" cy="70" r="3" fill="#FFF"/>
  <circle cx="35" cy="50" r="3" fill="#FFF"/>
  <circle cx="65" cy="50" r="3" fill="#FFF"/>
  
  <!-- 心跳脈衝效果 -->
  <path d="M35 55 H45 L50 40 L55 65 L60 45 H65" 
        stroke="#FFF" 
        stroke-width="2" 
        fill="none"/>
</svg>