<svg xmlns="http://www.w3.org/2000/svg" viewBox="0 0 100 100">
  <!-- 背景圓形 -->
  <circle cx="50" cy="50" r="45" fill="rgb(112,128,144)"/>
  
  <!-- PCB 底層路徑 -->
  <path d="M10 50 H30 M70 50 H90
           M50 10 V30 M50 70 V90
           M20 20 L30 30 M80 20 L70 30
           M20 80 L30 70 M80 80 L70 70" 
        stroke="#FFF" 
        stroke-width="1.5" 
        fill="none"/>
  
  <!-- 大腦外形 -->
  <path d="M30 35 
           C30 25 40 20 50 20
           C60 20 70 25 70 35
           C80 35 85 45 80 55
           C85 65 80 75 70 75
           C70 80 60 85 50 85
           C40 85 30 80 30 75
           C20 75 15 65 20 55
           C15 45 20 35 30 35" 
        stroke="#FFF" 
        stroke-width="2" 
        fill="none"/>
  
  <!-- AI 神經網絡連接 -->
  <g stroke="#FFF" stroke-width="1">
    <line x1="35" y1="40" x2="65" y2="60"/>
    <line x1="35" y1="60" x2="65" y2="40"/>
    <line x1="50" y1="35" x2="50" y2="65"/>
  </g>
  
  <!-- 連接點 -->
  <circle cx="35" cy="40" r="2.5" fill="#FFF"/>
  <circle cx="65" cy="40" r="2.5" fill="#FFF"/>
  <circle cx="35" cy="60" r="2.5" fill="#FFF"/>
  <circle cx="65" cy="60" r="2.5" fill="#FFF"/>
  <circle cx="50" cy="35" r="2.5" fill="#FFF"/>
  <circle cx="50" cy="65" r="2.5" fill="#FFF"/>
  
  <!-- PCB 元件 -->
  <rect x="45" y="45" width="10" height="10" 
        stroke="#FFF" 
        stroke-width="1" 
        fill="none"/>
  
  <!-- 數位脈衝 -->
  <path d="M25 70 H35 L35 65 H45 L45 70 H55" 
        stroke="#FFF" 
        stroke-width="1" 
        fill="none"/>
</svg>